<svg xmlns="http://www.w3.org/2000/svg" width="17.995" height="17.995" viewBox="0 0 17.995 17.995">
  <g id="Google-Button" transform="translate(-9 -9.022)">
    <g id="btn_google_light_normal" transform="translate(9 9.022)">
      <g id="button" transform="translate(0 0)">
        <g id="button-bg">
          <rect width="17.992" height="17.992" rx="2" fill="#fff"/>
          <rect width="17.992" height="17.992" rx="2" fill="none"/>
          <rect width="17.992" height="17.992" rx="2" fill="none"/>
          <rect width="17.992" height="17.992" rx="2" fill="none"/>
        </g>
      </g>
      <g id="logo_googleg_48dp">
        <path id="Shape" d="M17.638,9.2a10.338,10.338,0,0,0-.164-1.84H9v3.48h4.842a4.139,4.139,0,0,1-1.8,2.716v2.258h2.908A8.775,8.775,0,0,0,17.638,9.2Z" transform="translate(-0.002 -0.002)" fill="#4285f4" fill-rule="evenodd"/>
        <path id="Shape-2" data-name="Shape" d="M9,18a8.59,8.59,0,0,0,5.955-2.18l-2.908-2.258A5.428,5.428,0,0,1,3.963,10.71H.957v2.331A8.994,8.994,0,0,0,9,18Z" transform="translate(0 -0.003)" fill="#34a853" fill-rule="evenodd"/>
        <path id="Shape-3" data-name="Shape" d="M3.963,10.708a5.319,5.319,0,0,1,0-3.419V4.958H.957a9.009,9.009,0,0,0,0,8.082l3.006-2.331Z" transform="translate(0 -0.001)" fill="#fbbc05" fill-rule="evenodd"/>
        <path id="Shape-4" data-name="Shape" d="M9,3.579a4.861,4.861,0,0,1,3.44,1.346l2.581-2.581A8.647,8.647,0,0,0,9,0,8.994,8.994,0,0,0,.957,4.957L3.963,7.288A5.362,5.362,0,0,1,9,3.579Z" transform="translate(0)" fill="#ea4335" fill-rule="evenodd"/>
        <path id="Shape-5" data-name="Shape" d="M0,0H18V18H0Z" fill="none" fill-rule="evenodd"/>
      </g>
    </g>
  </g>
</svg>
